<?xml version="1.0" encoding="UTF-8" standalone="no"?>
<!DOCTYPE svg PUBLIC "-//W3C//DTD SVG 1.1//EN"
 "http://www.w3.org/Graphics/SVG/1.1/DTD/svg11.dtd">
<!-- Generated by graphviz version 2.38.0 (20140413.2041)
 -->
<!-- Title: %3 Pages: 1 -->
<svg width="499pt" height="355pt"
 viewBox="0.00 0.00 499.20 355.00" xmlns="http://www.w3.org/2000/svg" xmlns:xlink="http://www.w3.org/1999/xlink">
<g id="graph0" class="graph" transform="scale(1 1) rotate(0) translate(4 351)">
<title>%3</title>
<polygon fill="#3f3f3f" stroke="none" points="-4,4 -4,-351 495.196,-351 495.196,4 -4,4"/>
<text text-anchor="middle" x="245.598" y="-9.2" font-family="Times,serif" font-size="16.00" fill="white">Network Map</text>
<!-- R1 -->
<g id="node1" class="node"><title>R1</title>
<polygon fill="#006699" stroke="#006699" points="319.196,-347 243.196,-347 243.196,-274 319.196,-274 319.196,-347"/>
<text text-anchor="middle" x="281.196" y="-306.8" font-family="Helvetica,sans-Serif" font-size="14.00" fill="white">R1</text>
</g>
<!-- R2 -->
<g id="node2" class="node"><title>R2</title>
<polygon fill="#006699" stroke="#006699" points="295.196,-99 219.196,-99 219.196,-26 295.196,-26 295.196,-99"/>
<text text-anchor="middle" x="257.196" y="-58.8" font-family="Helvetica,sans-Serif" font-size="14.00" fill="white">R2</text>
</g>
<!-- R5 -->
<g id="node3" class="node"><title>R5</title>
<polygon fill="#006699" stroke="#006699" points="134.196,-223 58.1961,-223 58.1961,-150 134.196,-150 134.196,-223"/>
<text text-anchor="middle" x="96.1961" y="-182.8" font-family="Helvetica,sans-Serif" font-size="14.00" fill="white">R5</text>
</g>
<!-- R2&#45;&#45;R5 -->
<g id="edge1" class="edge"><title>R2&#45;&#45;R5</title>
<path fill="none" stroke="green" stroke-dasharray="5,2" d="M218.922,-78.7162C198.256,-87.9934 172.996,-101.121 153.196,-117 141.489,-126.389 130.47,-138.497 121.299,-149.916"/>
<text text-anchor="middle" x="203.196" y="-120.8" font-family="Courier,monospace" font-size="14.00" fill="white"> &#160;&#160;&#160;&#160;&#160;&#160;&#160;&#160;&#160;&#160;&#160;</text>
<text text-anchor="middle" x="92.2988" y="-138.716" font-family="Courier,monospace" font-size="14.00" fill="white">Eth 0/0</text>
<text text-anchor="middle" x="189.922" y="-67.5162" font-family="Courier,monospace" font-size="14.00" fill="white">Eth 0/1</text>
</g>
<!-- SW1 -->
<g id="node5" class="node"><title>SW1</title>
<polygon fill="#006699" stroke="#006699" points="312.696,-223 223.696,-223 223.696,-150 312.696,-150 312.696,-223"/>
<text text-anchor="middle" x="268.196" y="-182.8" font-family="Helvetica,sans-Serif" font-size="14.00" fill="white">SW1</text>
</g>
<!-- R2&#45;&#45;SW1 -->
<g id="edge5" class="edge"><title>R2&#45;&#45;SW1</title>
<path fill="none" stroke="green" stroke-dasharray="5,2" d="M256.568,-99.1184C256.691,-109.72 257.131,-121.349 258.196,-132 258.779,-137.829 259.666,-143.973 260.676,-149.937"/>
<text text-anchor="middle" x="308.196" y="-120.8" font-family="Courier,monospace" font-size="14.00" fill="white"> &#160;&#160;&#160;&#160;&#160;&#160;&#160;&#160;&#160;&#160;&#160;</text>
<text text-anchor="middle" x="231.676" y="-138.737" font-family="Courier,monospace" font-size="14.00" fill="white">Eth 0/2</text>
<text text-anchor="middle" x="227.568" y="-102.918" font-family="Courier,monospace" font-size="14.00" fill="white">Eth 0/0</text>
</g>
<!-- R6 -->
<g id="node7" class="node"><title>R6</title>
<polygon fill="#006699" stroke="#006699" points="418.196,-223 342.196,-223 342.196,-150 418.196,-150 418.196,-223"/>
<text text-anchor="middle" x="380.196" y="-182.8" font-family="Helvetica,sans-Serif" font-size="14.00" fill="white">R6</text>
</g>
<!-- R2&#45;&#45;R6 -->
<g id="edge3" class="edge"><title>R2&#45;&#45;R6</title>
<path fill="none" stroke="green" stroke-dasharray="5,2" d="M295.465,-75.6463C316.638,-84.1535 341.888,-97.5285 358.196,-117 365.976,-126.288 371.018,-138.373 374.281,-149.8"/>
<text text-anchor="middle" x="418.196" y="-120.8" font-family="Courier,monospace" font-size="14.00" fill="white"> &#160;&#160;&#160;&#160;&#160;&#160;&#160;&#160;&#160;&#160;&#160;</text>
<text text-anchor="middle" x="345.281" y="-138.6" font-family="Courier,monospace" font-size="14.00" fill="white">Eth 0/1</text>
<text text-anchor="middle" x="324.465" y="-64.4463" font-family="Courier,monospace" font-size="14.00" fill="white">Eth 0/2</text>
</g>
<!-- R4 -->
<g id="node4" class="node"><title>R4</title>
<polygon fill="#006699" stroke="#006699" points="134.196,-347 58.1961,-347 58.1961,-274 134.196,-274 134.196,-347"/>
<text text-anchor="middle" x="96.1961" y="-306.8" font-family="Helvetica,sans-Serif" font-size="14.00" fill="white">R4</text>
</g>
<!-- R5&#45;&#45;R4 -->
<g id="edge2" class="edge"><title>R5&#45;&#45;R4</title>
<path fill="none" stroke="green" stroke-dasharray="5,2" d="M58.1413,-212.732C49.2918,-220.64 41.0474,-230.174 36.1961,-241 28.2439,-258.745 41.7843,-275.252 58,-287.613"/>
<text text-anchor="middle" x="86.1961" y="-244.8" font-family="Courier,monospace" font-size="14.00" fill="white"> &#160;&#160;&#160;&#160;&#160;&#160;&#160;&#160;&#160;&#160;&#160;</text>
<text text-anchor="middle" x="29" y="-276.413" font-family="Courier,monospace" font-size="14.00" fill="white">Eth 0/1</text>
<text text-anchor="middle" x="29.1413" y="-201.532" font-family="Courier,monospace" font-size="14.00" fill="white">Eth 0/1</text>
</g>
<!-- SW1&#45;&#45;R1 -->
<g id="edge7" class="edge"><title>SW1&#45;&#45;R1</title>
<path fill="none" stroke="green" stroke-dasharray="5,2" d="M271.991,-223.115C273.685,-239.01 275.677,-257.704 277.374,-273.629"/>
<text text-anchor="middle" x="326.196" y="-244.8" font-family="Courier,monospace" font-size="14.00" fill="white"> &#160;&#160;&#160;&#160;&#160;&#160;&#160;&#160;&#160;&#160;&#160;</text>
<text text-anchor="middle" x="248.374" y="-262.429" font-family="Courier,monospace" font-size="14.00" fill="white">Eth 0/0</text>
<text text-anchor="middle" x="242.991" y="-226.915" font-family="Courier,monospace" font-size="14.00" fill="white">Eth 0/1</text>
</g>
<!-- SW1&#45;&#45;R4 -->
<g id="edge6" class="edge"><title>SW1&#45;&#45;R4</title>
<path fill="none" stroke="green" stroke-dasharray="5,2" d="M223.381,-208.983C206.179,-217.985 186.723,-229.12 170.196,-241 156.692,-250.707 143.02,-262.643 131.164,-273.817"/>
<text text-anchor="middle" x="220.196" y="-244.8" font-family="Courier,monospace" font-size="14.00" fill="white"> &#160;&#160;&#160;&#160;&#160;&#160;&#160;&#160;&#160;&#160;&#160;</text>
<text text-anchor="middle" x="102.164" y="-262.617" font-family="Courier,monospace" font-size="14.00" fill="white">Eth 0/0</text>
<text text-anchor="middle" x="194.381" y="-197.783" font-family="Courier,monospace" font-size="14.00" fill="white">Eth 0/4</text>
</g>
<!-- R3 -->
<g id="node6" class="node"><title>R3</title>
<polygon fill="#006699" stroke="#006699" points="442.196,-347 366.196,-347 366.196,-274 442.196,-274 442.196,-347"/>
<text text-anchor="middle" x="404.196" y="-306.8" font-family="Helvetica,sans-Serif" font-size="14.00" fill="white">R3</text>
</g>
<!-- SW1&#45;&#45;R3 -->
<g id="edge4" class="edge"><title>SW1&#45;&#45;R3</title>
<path fill="none" stroke="green" stroke-dasharray="5,2" d="M312.903,-212.931C319.63,-216.461 326.543,-219.926 333.196,-223 353.502,-232.382 364.608,-224.957 380.196,-241 388.89,-249.947 394.449,-262.219 397.997,-273.905"/>
<text text-anchor="middle" x="441.196" y="-244.8" font-family="Courier,monospace" font-size="14.00" fill="white"> &#160;&#160;&#160;&#160;&#160;&#160;&#160;&#160;&#160;&#160;&#160;</text>
<text text-anchor="middle" x="368.997" y="-262.705" font-family="Courier,monospace" font-size="14.00" fill="white">Eth 0/0</text>
<text text-anchor="middle" x="341.903" y="-216.731" font-family="Courier,monospace" font-size="14.00" fill="white">Eth 0/3</text>
</g>
</g>
</svg>
